<?xml version="1.0" encoding="UTF-8"?>
<!DOCTYPE svg PUBLIC "-//W3C//DTD SVG 1.1//EN" "http://www.w3.org/Graphics/SVG/1.1/DTD/svg11.dtd">
<!-- Creator: CorelDRAW -->
<svg xmlns="http://www.w3.org/2000/svg" xml:space="preserve" width="2048px" height="2048px" style="shape-rendering:geometricPrecision; text-rendering:geometricPrecision; image-rendering:optimizeQuality; fill-rule:evenodd; clip-rule:evenodd"
viewBox="0 0 2048 2048"
 xmlns:xlink="http://www.w3.org/1999/xlink">
 <defs>
  <style type="text/css">
   <![CDATA[
    .fil5 {fill:none}
    .fil0 {fill:#919191}
    .fil1 {fill:#A4A4A5}
    .fil4 {fill:#CACACA}
    .fil2 {fill:#D9D9DA}
    .fil3 {fill:#E8E9E9}
   ]]>
  </style>
 </defs>
 <g id="Layer_x0020_1">
  <metadata id="CorelCorpID_0Corel-Layer"/>
  <path class="fil0" d="M1024 287.998l1.0937 0 642.909 0c25.3323,0 48.3414,10.3417 64.9997,27 16.6583,16.6583 27,39.6674 27,64.9997l0 1288c0,25.3323 -10.3417,48.3414 -27,64.9997 -16.6583,16.6583 -39.6674,27 -64.9997,27l-643.915 0 -0.0874016 0 0 -1472z"/>
  <path class="fil1" d="M379.999 287.998l644.001 0 0 1472 -644.001 0c-25.3323,0 -48.3414,-10.3417 -64.9997,-27 -16.6583,-16.6583 -27,-39.6674 -27,-64.9997l0 -1288c0,-25.3323 10.3417,-48.3414 27,-64.9997 16.6583,-16.6583 39.6674,-27 64.9997,-27z"/>
  <path class="fil2" d="M1024 1311.58l0.394488 -0.0259843c21.1807,-1.39961 42.7146,-7.66772 63.9201,-19.1988 35.6965,-19.4126 70.5745,-53.6197 101.754,-104.453l10.8177 -17.6374 20.4331 2.6374c72.8233,9.39804 149.954,28.317 209.907,67.3902 63.9284,41.6634 107.966,104.528 107.966,199.694 0,4.48111 -0.350788,9.18426 -1.05709,14.1 -0.662599,4.59567 -1.67362,9.20316 -3.04134,13.8012l0 0.125197c-25.9547,87.1418 -166.501,137.891 -335.954,156.786 -55.9772,6.24213 -115.455,9.23032 -174.966,9.09331l-0.173622 -0.0011811 0 -322.31z"/>
  <path class="fil3" d="M508.94 1450.25l-0.124016 0 0 -15.9898 0.751182 -6.3756c38.204,-186.626 114.774,-204.895 232.945,-233.086 22.3677,-5.33504 46.3843,-11.0658 69.8753,-18.0036l24.6768 -7.28859 12.3236 22.663c23.5063,43.2237 53.3091,75.8351 86.2678,96.0509 23.7284,14.5547 49.0548,22.65 74.6965,23.5547 4.52835,0.159449 9.08032,0.0956694 13.6476,-0.19252l0 322.31c-50.7496,-0.122835 -101.521,-2.51575 -150.164,-7.11024 -107.019,-10.1067 -204.323,-31.0205 -269.615,-61.9678 -59.791,-28.3406 -95.778,-66.4146 -95.2808,-114.565z"/>
  <path class="fil4" d="M1024 451.095l0.981497 0.408662 3.81969 1.5874 292.958 121.818c0.445276,0.184252 4.02284,1.70906 7.37953,3.13937 0.895276,0.381496 1.5874,0.679134 6.08977,2.55945l66.176 27.6449 -64.8012 30.7311c-1.98543,0.941339 -1.45984,0.622441 -2.27717,1.04055l0 0.125197c-0.429922,0.218504 -0.43937,0.200788 -0.54567,0.264567l-0.125197 0 -57.9981 34.7988c0.256299,22.1445 1.70788,47.9339 3.90237,73.8343 2.70591,31.9335 6.3756,63.15 10.2496,87.639l0 0.124016c0.243307,1.55079 0.61063,2.92796 1.10906,4.18583 0.462992,1.16811 1.25079,2.57126 2.35512,4.23662 8.03623,12.111 12.4264,20.0528 15.2339,30.5433 2.71772,10.1575 3.02717,19.0937 3.02717,33.7477 0,12.1063 -1.40906,23.1933 -3.7878,34.0725 -2.25591,10.3205 -5.263,19.9465 -8.70473,29.9575 -7.44095,21.6449 -16.8484,29.5016 -27.189,38.1366 -2.53701,2.1189 -5.21339,4.35591 -7.64764,7.42205 -7.61221,44.6563 -45.5292,100.391 -92.8288,143.967 -44.8311,41.2996 -99.5812,73.2804 -146.934,76.6961l-0.442914 0.0318898 0 -788.712z"/>
  <path class="fil2" d="M1016.2 1240.08c-49.043,0 -107.405,-33.2847 -154.729,-77.0245 -47.1863,-43.6134 -84.9768,-99.3603 -92.5737,-143.949 -2.43425,-3.06496 -5.11063,-5.30079 -7.64764,-7.41969 -10.3417,-8.63623 -19.7469,-16.4917 -27.1878,-38.1366 -3.44173,-10.011 -6.44882,-19.637 -8.70473,-29.9575 -2.37874,-10.8791 -3.7878,-21.9662 -3.7878,-34.0725 0,-14.6539 0.309449,-23.5902 3.02717,-33.7477 2.80748,-10.4906 7.19882,-18.4323 15.2327,-30.5433 1.10433,-1.66536 1.89213,-3.06851 2.35512,-4.23662 0.499607,-1.26024 0.86693,-2.6374 1.11024,-4.18583l0 -0.124016c3.87402,-24.489 7.54371,-55.7056 10.2496,-87.639 2.19449,-25.9004 3.64607,-51.6898 3.90237,-73.8343l-47.5666 -28.5402 -0.31063 86.9257c11.6043,4.19882 19.9087,15.3874 19.9087,28.4126 0,8.32678 -3.43937,15.9083 -8.90552,21.3744 5.29252,17.7331 13.0417,54.7961 -2.9315,83.4001 -4.62048,8.22284 -12.5256,14.1189 -21.8669,16.2024 -9.25513,2.20158 -18.9201,0.179528 -26.6457,-5.28662l-4.21536 -3.01181c-8.13662,-5.81339 -13.2862,-15.0449 -13.865,-25.0583 -0.664961,-10.0075 3.18544,-19.7599 10.5921,-26.5748 9.16772,-8.57717 16.8071,-20.5134 19.0878,-37.0642 -7.13977,-5.55945 -11.6858,-14.211 -11.6858,-23.9811 0,-13.1114 8.39646,-24.3 20.0835,-28.4126l0.419292 -97.9123 -57.8646 -27.4418 66.1938 -27.6366c4.40906,-1.84016 5.16024,-2.1626 6.09567,-2.56181 3.3874,-1.44449 6.6756,-2.84646 7.37481,-3.13701l292.958 -121.818 12.2516 -5.09292 7.44804 3.09685 0 788.712c-2.62441,0.179528 -5.22638,0.276378 -7.80237,0.276378z"/>
  <rect class="fil5" x="255.999" y="255.999" width="1536" height="1536"/>
  <rect class="fil5" width="2048" height="2048"/>
 </g>
</svg>
